<svg id="Icons_Layers" viewBox="0 0 512 512" xmlns="http://www.w3.org/2000/svg" data-name="Icons Layers"><g id="_12" fill="rgb(0,0,0)" data-name="12"><path id="_12-2" d="m218 471.16h-103.27a61 61 0 0 1 -60.81-60.59v-205.34a37.92 37.92 0 0 1 13.69-28.95l18.18-13.46a20.2 20.2 0 0 0 -23.34-32.09l-18.63 13.91a78.07 78.07 0 0 0 -30.29 60.59v205.56a101.42 101.42 0 0 0 101.2 101.21h103.27a20.2 20.2 0 1 0 0-40.39z" data-name="12-2"/><path id="_12-1" 
d="m498.47 204.78a78.76 78.76 0 0 0 -29.39-60.59l-155.08-123.65a93.13 93.13 0 0 0 -116.69 0l-49.14 35.68a20.58 20.58 0 0 0 24 33.44l49.83-37.25a53 53 0 0 1 67.32 0l155.07 123.65a37.88 37.88 0 0 1 14.36 29.17v205.56a60.59 60.59 0 0 1 -60.59 60.59h-46a8.53 8.53 0 0 1 -8.53-8.53v-92.68a53.63 53.63 0 0 0 -53.41-53.63h-67.32a53.62 53.62 0 0 0 -53.63 53.63v35.46a20.2 20.2 0 1 0 40.39 0v-35.46a13 13 0 0 1 13-13.24h67.34a13 13 0 0 1 13 13v92.9a49.15 49.15 0 0 0 49.15 48.93h44.85a101.21 101.21 0 0 0 101.25-101.19z" data-name="12-1"/></g></svg>